<svg width="120" height="80" viewBox="0 0 120 80" xmlns="http://www.w3.org/2000/svg">
  <!-- Blue canton -->
  <rect x="0" y="0" width="48" height="42" fill="#002868"/>
  
  <!-- White stars (simplified) -->
  <g fill="#FFFFFF">
    <circle cx="8" cy="8" r="1.5"/>
    <circle cx="16" cy="8" r="1.5"/>
    <circle cx="24" cy="8" r="1.5"/>
    <circle cx="32" cy="8" r="1.5"/>
    <circle cx="40" cy="8" r="1.5"/>
    <circle cx="12" cy="16" r="1.5"/>
    <circle cx="20" cy="16" r="1.5"/>
    <circle cx="28" cy="16" r="1.5"/>
    <circle cx="36" cy="16" r="1.5"/>
    <circle cx="8" cy="24" r="1.5"/>
    <circle cx="16" cy="24" r="1.5"/>
    <circle cx="24" cy="24" r="1.5"/>
    <circle cx="32" cy="24" r="1.5"/>
    <circle cx="40" cy="24" r="1.5"/>
    <circle cx="12" cy="32" r="1.5"/>
    <circle cx="20" cy="32" r="1.5"/>
    <circle cx="28" cy="32" r="1.5"/>
    <circle cx="36" cy="32" r="1.5"/>
    <circle cx="8" cy="40" r="1.5"/>
    <circle cx="16" cy="40" r="1.5"/>
    <circle cx="24" cy="40" r="1.5"/>
    <circle cx="32" cy="40" r="1.5"/>
    <circle cx="40" cy="40" r="1.5"/>
  </g>
  
  <!-- Red stripes -->
  <rect x="0" y="0" width="120" height="6" fill="#BF0A30"/>
  <rect x="0" y="12" width="120" height="6" fill="#BF0A30"/>
  <rect x="0" y="24" width="120" height="6" fill="#BF0A30"/>
  <rect x="0" y="36" width="120" height="6" fill="#BF0A30"/>
  <rect x="0" y="48" width="120" height="6" fill="#BF0A30"/>
  <rect x="0" y="60" width="120" height="6" fill="#BF0A30"/>
  <rect x="0" y="72" width="120" height="6" fill="#BF0A30"/>
</svg>
